<svg width="108" height="108" viewBox="0 0 108 108" fill="none" xmlns="http://www.w3.org/2000/svg">
<rect width="108" height="108" rx="8.60558" fill="#330036"/>
<path d="M99.0176 61.3962C99.5621 65.9332 99.1991 69.3813 97.9287 71.7406C96.6584 74.0999 95.025 76.7313 93.0287 79.635C91.2139 80.1795 90.2158 80.7239 90.0343 81.2684C89.8528 81.8128 89.4899 82.1758 88.9454 82.3572C87.3121 83.4461 85.4065 84.2628 83.2288 84.8072C81.2325 85.1702 79.0547 85.2609 76.6954 85.0795C74.5177 84.898 72.4306 84.3535 70.4343 83.4461C68.438 82.5387 67.0769 81.3591 66.351 79.9073C65.4436 80.0887 64.8084 80.0887 64.4455 79.9073C64.0825 79.5443 63.6288 79.2721 63.0844 79.0906C63.0844 77.2758 62.1769 76.3684 60.3621 76.3684C60.5436 74.5536 60.2714 73.4647 59.5455 73.1017C59.001 72.7387 58.5473 72.285 58.1844 71.7406C58.7288 71.0147 58.8195 70.3795 58.4566 69.835C58.0936 69.1091 58.0936 68.2925 58.4566 67.3851C58.0936 66.6591 57.6399 66.2054 57.0955 66.0239C56.7325 65.8425 56.3696 65.5702 56.0066 65.2073C55.4621 63.9369 55.6436 62.9388 56.551 62.2128C57.4584 61.4869 57.8214 60.398 57.6399 58.9462C57.277 58.5832 56.6418 58.311 55.7344 58.1295C55.0084 57.948 54.3733 57.6758 53.8288 57.3128C54.1918 56.7684 54.101 56.224 53.5566 55.6795C53.1936 55.1351 52.8307 54.6814 52.4677 54.3184C52.8307 53.048 53.1936 52.2314 53.5566 51.8684C53.9196 51.5055 54.101 51.0518 54.101 50.5073C57.9121 46.1518 60.9973 42.3407 63.3566 39.074C65.8973 35.6259 68.7103 32.3592 71.7954 29.274C73.6103 28.1851 75.2436 27.4592 76.6954 27.0962C78.3288 26.7333 79.5991 26.0074 80.5065 24.9185C82.8658 24.737 85.3158 24.2833 87.8565 23.5574C90.5787 22.65 92.938 23.1037 94.9343 24.9185C94.9343 25.8259 94.2084 26.5518 92.7565 27.0962C91.3047 27.4592 90.3065 27.187 89.7621 26.2796C89.0362 27.5499 88.3102 28.2759 87.5843 28.4573C87.0399 28.6388 86.6769 29.0018 86.4954 29.5462C80.688 30.8166 76.3325 33.811 73.4288 38.5296C70.5251 43.2481 70.0714 48.6018 72.0677 54.5906C73.5195 55.1351 74.7899 55.0443 75.8788 54.3184C77.1491 53.411 78.3288 53.048 79.4177 53.2295C81.7769 53.774 83.4102 53.8647 84.3176 53.5017C85.2251 53.1388 85.8602 53.411 86.2232 54.3184C87.8565 53.9554 89.1269 54.1369 90.0343 54.8629C90.9417 55.5888 92.0306 56.1332 93.301 56.4962C95.2973 57.7666 96.4769 58.8554 96.8398 59.7628C97.3843 60.4888 98.1102 61.0332 99.0176 61.3962ZM53.8288 67.3851C54.1918 68.2925 54.1918 69.4721 53.8288 70.9239C53.4659 72.3758 52.5584 73.2832 51.1066 73.6462C50.3807 76.0054 49.7455 78.0924 49.201 79.9073C48.6566 81.5406 47.9307 83.1739 47.0233 84.8072C45.5714 85.1702 44.3011 85.7146 43.2122 86.4406C42.3048 87.1665 41.3066 87.7109 40.2177 88.0739C37.1326 88.9813 34.2289 88.6183 31.5066 86.985C28.7844 85.3517 26.4252 83.5369 24.4289 81.5406C21.3437 78.4554 18.5307 75.1887 15.99 71.7406C13.4493 68.111 11.6345 64.4814 10.5456 60.8517C10.3641 60.3073 10.3641 59.8536 10.5456 59.4906C10.727 59.1277 10.8178 58.5832 10.8178 57.8573C9.7289 56.9499 9.18446 56.1332 9.18446 55.4073C9.18446 54.4999 9.00298 53.774 8.64001 53.2295C9.91038 51.7777 10.9993 50.1443 11.9067 48.3295C12.8141 46.5147 13.7215 44.6999 14.6289 42.8851C15.5363 41.0703 16.5344 39.3462 17.6233 37.7129C18.7122 36.0796 20.0733 34.7184 21.7067 33.6296C22.0696 32.1777 22.6141 31.1796 23.34 30.6351C24.0659 29.9092 24.7011 29.0925 25.2455 28.1851C27.2418 26.9148 29.0566 25.4629 30.69 23.8296C32.3233 22.1962 34.4103 20.9259 36.9511 20.0185C38.4029 19.837 39.9455 19.6555 41.5788 19.474C43.3937 19.2925 44.7548 19.837 45.6622 21.1074C45.6622 22.0148 45.4807 22.8314 45.1177 23.5574C44.7548 24.1018 44.3918 24.737 44.0288 25.4629C41.4881 25.8259 38.9474 26.4611 36.4066 27.3685C33.8659 28.0944 32.1418 29.5462 31.2344 31.724C30.5085 31.5425 30.0548 31.724 29.8733 32.2685C29.6918 32.8129 29.3289 33.2666 28.7844 33.6296C28.24 35.0814 27.7863 36.624 27.4233 38.2573C27.0603 39.8907 26.4252 41.2518 25.5178 42.3407C25.6992 43.7925 25.6992 45.2444 25.5178 46.6962C25.5178 47.9666 25.1548 49.1462 24.4289 50.2351C25.1548 50.4166 25.427 50.8703 25.2455 51.5962C25.0641 52.1406 24.8826 52.6851 24.7011 53.2295C24.8826 54.1369 25.2455 54.8629 25.79 55.4073C26.5159 55.7703 27.0603 56.3147 27.4233 57.0406C28.8752 55.5888 30.4178 54.7721 32.0511 54.5906C33.8659 54.4092 35.59 54.1369 37.2233 53.774C39.0381 54.6814 41.3974 55.861 44.3011 57.3128C47.3862 58.5832 49.4733 59.9443 50.5622 61.3962C51.2881 63.211 51.9233 64.4814 52.4677 65.2073C53.1936 65.7517 53.6473 66.4776 53.8288 67.3851ZM65.8066 52.1406C64.7177 50.8703 64.0825 50.4166 63.901 50.7795C63.7195 51.1425 63.2658 51.324 62.5399 51.324C63.6288 52.7758 64.3547 53.411 64.7177 53.2295C65.0806 52.8666 65.4436 52.5036 65.8066 52.1406ZM85.6788 59.2184C83.6825 58.311 82.0491 58.4925 80.7788 59.7628C79.6899 60.8517 78.1473 61.3962 76.151 61.3962C74.6991 62.4851 73.1566 63.4832 71.5232 64.3906C69.8899 65.298 68.0751 66.2054 66.0788 67.1128C66.8047 68.5647 67.2584 69.1999 67.4399 69.0184C67.8029 68.8369 68.2566 68.8369 68.801 69.0184C69.3455 67.5665 70.3436 66.5684 71.7954 66.0239C73.2473 65.4795 74.9714 65.1165 76.9677 64.9351C77.3306 63.4832 78.601 62.5758 80.7788 62.2128C83.138 61.6684 84.7713 60.6703 85.6788 59.2184ZM93.5732 62.7573C91.7584 62.2128 90.7602 62.1221 90.5787 62.4851C90.3973 62.6665 90.125 62.848 89.7621 63.0295C87.9473 63.5739 86.4954 64.2999 85.4065 65.2073C84.4991 66.1147 83.5917 66.7499 82.6843 67.1128C82.5028 67.8388 81.7769 68.4739 80.5065 69.0184C79.2362 69.3813 77.8751 69.6536 76.4232 69.835C78.238 71.2869 79.7806 71.4684 81.051 70.3795C82.5028 69.2906 83.7732 68.7462 84.8621 68.7462C84.4991 69.4721 84.0454 70.0165 83.501 70.3795C82.9565 70.561 82.5028 70.9239 82.1399 71.4684C80.8695 70.9239 79.9621 71.1962 79.4177 72.285C78.8732 73.1925 77.8751 73.6462 76.4232 73.6462C74.2454 72.5573 72.9751 72.648 72.6121 73.9184C72.9751 74.2813 73.338 74.1906 73.701 73.6462C74.2454 73.1017 74.8806 72.9202 75.6066 73.1017C74.8806 74.1906 74.2454 75.098 73.701 75.8239C73.338 76.5499 72.7029 77.0036 71.7954 77.185C72.7029 79.3628 74.1547 80.4517 76.151 80.4517C78.1473 80.4517 80.4158 80.6332 82.9565 80.9961C84.2269 79.9073 85.6788 78.8184 87.3121 77.7295C89.1269 76.6406 90.5787 75.3702 91.6676 73.9184C92.938 72.4665 93.8454 70.8332 94.3898 69.0184C94.9343 67.2036 94.6621 65.1165 93.5732 62.7573ZM67.7121 59.7628C66.0788 58.311 64.8992 57.948 64.1732 58.674C63.6288 59.2184 62.9029 59.6721 61.9955 60.0351C63.8103 61.124 64.9899 61.4869 65.5343 61.124C66.0788 60.5795 66.8047 60.1258 67.7121 59.7628ZM81.3232 64.6628C80.5973 64.4814 79.9621 64.6628 79.4177 65.2073C79.0547 65.5702 78.4195 65.5702 77.5121 65.2073C76.2417 67.2036 74.3362 68.4739 71.7954 69.0184C69.4362 69.5628 67.4399 70.561 65.8066 72.0128C68.8917 72.7387 71.4325 72.1943 73.4288 70.3795C75.4251 68.5647 77.6936 67.4758 80.2343 67.1128L81.3232 64.6628ZM69.3455 61.9406C67.7121 61.5777 66.2603 61.9406 64.9899 63.0295C63.901 64.1184 63.3566 65.1165 63.3566 66.0239C64.4455 65.661 65.4436 65.1165 66.351 64.3906C67.4399 63.6647 68.438 62.848 69.3455 61.9406ZM19.8011 45.0629C19.0752 45.0629 18.3493 45.4258 17.6233 46.1518C17.0789 46.8777 16.6252 47.6036 16.2622 48.3295C16.0807 49.0555 16.0807 49.7814 16.2622 50.5073C16.6252 51.2332 17.4418 51.5962 18.7122 51.5962C19.0752 50.5073 19.3474 49.5092 19.5289 48.6018C19.7104 47.6943 19.8011 46.5147 19.8011 45.0629ZM49.201 71.1962C49.3825 69.7443 49.1103 68.5647 48.3844 67.6573C47.8399 66.5684 47.3862 65.5702 47.0233 64.6628C45.027 63.9369 43.3937 63.0295 42.1233 61.9406C41.0344 60.6703 39.764 59.5814 38.3122 58.674C36.6788 58.8554 35.4085 59.0369 34.5011 59.2184C33.5937 59.2184 32.9585 59.4906 32.5955 60.0351C33.5029 60.2165 34.2289 60.2165 34.7733 60.0351C35.3177 59.6721 35.8622 59.3999 36.4066 59.2184C36.7696 61.7591 36.0437 63.4832 34.2289 64.3906C32.414 65.1165 31.0529 66.3869 30.1455 68.2017C32.3233 67.8388 34.1381 67.2036 35.59 66.2962C37.0418 65.2073 38.9474 64.8443 41.3066 65.2073C42.214 66.2962 42.4862 67.3851 42.1233 68.4739C41.9418 69.5628 41.4881 70.561 40.7622 71.4684C40.0362 72.1943 39.2196 72.8295 38.3122 73.3739C37.4048 73.9184 36.6788 74.3721 36.1344 74.735C35.9529 76.1869 35.6807 77.185 35.3177 77.7295C34.9548 78.2739 34.5011 78.8184 33.9566 79.3628C34.5011 81.5406 34.7733 82.811 34.7733 83.1739C35.6807 83.1739 36.4974 83.2647 37.2233 83.4461C38.1307 83.6276 39.1288 83.5369 40.2177 83.1739C40.9437 82.9924 41.8511 82.3572 42.9399 81.2684C44.0288 80.1795 45.027 78.9998 45.9344 77.7295C46.8418 76.2776 47.5677 75.0073 48.1122 73.9184C48.8381 72.648 49.201 71.7406 49.201 71.1962ZM19.2567 53.2295C18.3493 53.048 17.6233 53.1388 17.0789 53.5017C16.7159 53.8647 16.2622 54.1369 15.7178 54.3184C15.8993 55.2258 15.7178 55.9517 15.1733 56.4962C14.8104 57.0406 14.8104 57.7666 15.1733 58.674C16.6252 57.2221 17.9863 55.4073 19.2567 53.2295ZM40.2177 69.0184C38.4029 67.9295 37.0418 67.748 36.1344 68.4739C35.227 69.0184 34.1381 69.4721 32.8677 69.835C30.69 70.7425 29.1474 71.5591 28.24 72.285C27.5141 73.011 26.2437 73.2832 24.4289 73.1017C24.9733 74.3721 25.6992 75.461 26.6066 76.3684C27.5141 77.0943 28.1492 78.1832 28.5122 79.635C31.4159 77.8202 33.5937 76.0054 35.0455 74.1906C36.4974 72.1943 38.2214 70.4702 40.2177 69.0184ZM21.7067 60.0351C20.4363 60.0351 19.6196 60.3073 19.2567 60.8517C18.8937 61.3962 18.2585 61.8499 17.3511 62.2128C18.6215 63.4832 19.5289 63.6647 20.0733 62.7573C20.7993 61.8499 21.3437 60.9425 21.7067 60.0351ZM27.4233 65.4795C26.5159 65.661 25.5178 66.0239 24.4289 66.5684C23.34 67.1128 22.4326 67.748 21.7067 68.4739C21.1622 69.0184 20.7993 69.6536 20.6178 70.3795C20.6178 71.1054 21.3437 71.8313 22.7955 72.5573C22.977 70.9239 23.7029 69.7443 24.9733 69.0184C26.4252 68.111 27.2418 66.9314 27.4233 65.4795ZM92.4843 67.1128C92.4843 68.2017 92.1213 68.9276 91.3954 69.2906C90.851 69.6536 90.3973 70.2888 90.0343 71.1962C87.8565 72.1036 86.7676 72.1943 86.7676 71.4684C87.8565 69.835 88.7639 68.7462 89.4899 68.2017C90.3973 67.6573 90.9417 66.8406 91.1232 65.7517L92.4843 67.1128ZM88.6732 68.4739C87.0399 69.0184 86.0417 69.1091 85.6788 68.7462C86.7676 68.2017 87.5843 67.9295 88.1287 67.9295C88.6732 67.748 88.8547 67.2036 88.6732 66.2962V68.4739ZM86.4954 72.8295C86.8584 73.7369 86.5862 74.5536 85.6788 75.2795C84.9528 75.8239 84.4084 76.4591 84.0454 77.185C84.5899 75.9147 84.8621 75.0073 84.8621 74.4628C85.0436 73.9184 84.9528 73.4647 84.5899 73.1017L86.4954 72.8295Z" fill="#9C89B8"/>
</svg>
